<mxfile host="65bd71144e">
    <diagram id="uGblZnIMD9TPzhfT1gU5" name="Page-1">
        <mxGraphModel dx="2858" dy="515" grid="1" gridSize="10" guides="1" tooltips="1" connect="1" arrows="1" fold="1" page="1" pageScale="1" pageWidth="1169" pageHeight="827" math="0" shadow="0">
            <root>
                <mxCell id="0"/>
                <mxCell id="1" parent="0"/>
                <mxCell id="117" value="" style="rounded=1;whiteSpace=wrap;html=1;fontSize=20;" parent="1" vertex="1">
                    <mxGeometry x="-415" y="766.5" width="415" height="370" as="geometry"/>
                </mxCell>
                <mxCell id="112" value="" style="rounded=1;whiteSpace=wrap;html=1;fontSize=20;" parent="1" vertex="1">
                    <mxGeometry x="-1370" y="653" width="760" height="597" as="geometry"/>
                </mxCell>
                <mxCell id="61" value="" style="rounded=1;whiteSpace=wrap;html=1;fontSize=20;" parent="1" vertex="1">
                    <mxGeometry x="170" y="467" width="760" height="967" as="geometry"/>
                </mxCell>
                <mxCell id="23" value="" style="edgeStyle=none;html=1;fontSize=20;" parent="1" source="2" target="19" edge="1">
                    <mxGeometry relative="1" as="geometry"/>
                </mxCell>
                <mxCell id="2" value="&lt;font&gt;&lt;font style=&quot;font-size: 20px&quot;&gt;ldf.asm&lt;/font&gt;&lt;br&gt;&lt;/font&gt;" style="rounded=0;whiteSpace=wrap;html=1;" parent="1" vertex="1">
                    <mxGeometry x="225" y="507" width="120" height="60" as="geometry"/>
                </mxCell>
                <mxCell id="25" value="" style="edgeStyle=none;html=1;fontSize=20;" parent="1" source="9" target="20" edge="1">
                    <mxGeometry relative="1" as="geometry"/>
                </mxCell>
                <mxCell id="9" value="&lt;font&gt;&lt;span style=&quot;font-size: 20px&quot;&gt;sst.asm&lt;/span&gt;&lt;br&gt;&lt;/font&gt;" style="rounded=0;whiteSpace=wrap;html=1;" parent="1" vertex="1">
                    <mxGeometry x="575" y="507" width="120" height="60" as="geometry"/>
                </mxCell>
                <mxCell id="24" value="" style="edgeStyle=none;html=1;fontSize=20;" parent="1" source="10" target="21" edge="1">
                    <mxGeometry relative="1" as="geometry"/>
                </mxCell>
                <mxCell id="10" value="&lt;font&gt;&lt;span style=&quot;font-size: 20px&quot;&gt;lja.asm&lt;/span&gt;&lt;br&gt;&lt;/font&gt;" style="rounded=0;whiteSpace=wrap;html=1;" parent="1" vertex="1">
                    <mxGeometry x="395" y="507" width="120" height="60" as="geometry"/>
                </mxCell>
                <mxCell id="26" value="" style="edgeStyle=none;html=1;fontSize=20;" parent="1" source="12" target="22" edge="1">
                    <mxGeometry relative="1" as="geometry"/>
                </mxCell>
                <mxCell id="12" value="&lt;font&gt;&lt;span style=&quot;font-size: 20px&quot;&gt;zzl.asm&lt;/span&gt;&lt;br&gt;&lt;/font&gt;" style="rounded=0;whiteSpace=wrap;html=1;" parent="1" vertex="1">
                    <mxGeometry x="745" y="507" width="120" height="60" as="geometry"/>
                </mxCell>
                <mxCell id="19" value="&lt;font&gt;&lt;font style=&quot;font-size: 20px&quot;&gt;ldf.obj&lt;/font&gt;&lt;br&gt;&lt;/font&gt;" style="rounded=0;whiteSpace=wrap;html=1;" parent="1" vertex="1">
                    <mxGeometry x="225" y="647" width="120" height="60" as="geometry"/>
                </mxCell>
                <mxCell id="20" value="&lt;font&gt;&lt;span style=&quot;font-size: 20px&quot;&gt;sst.obj&lt;/span&gt;&lt;br&gt;&lt;/font&gt;" style="rounded=0;whiteSpace=wrap;html=1;" parent="1" vertex="1">
                    <mxGeometry x="575" y="647" width="120" height="60" as="geometry"/>
                </mxCell>
                <mxCell id="21" value="&lt;font&gt;&lt;span style=&quot;font-size: 20px&quot;&gt;lja.obj&lt;/span&gt;&lt;br&gt;&lt;/font&gt;" style="rounded=0;whiteSpace=wrap;html=1;" parent="1" vertex="1">
                    <mxGeometry x="395" y="647" width="120" height="60" as="geometry"/>
                </mxCell>
                <mxCell id="22" value="&lt;font&gt;&lt;span style=&quot;font-size: 20px&quot;&gt;zzl.obj&lt;/span&gt;&lt;br&gt;&lt;/font&gt;" style="rounded=0;whiteSpace=wrap;html=1;" parent="1" vertex="1">
                    <mxGeometry x="745" y="647" width="120" height="60" as="geometry"/>
                </mxCell>
                <mxCell id="27" value="ml.exe" style="text;html=1;strokeColor=none;fillColor=none;align=center;verticalAlign=middle;whiteSpace=wrap;rounded=0;fontSize=20;" parent="1" vertex="1">
                    <mxGeometry x="295" y="587" width="60" height="30" as="geometry"/>
                </mxCell>
                <mxCell id="28" value="ml.exe" style="text;html=1;strokeColor=none;fillColor=none;align=center;verticalAlign=middle;whiteSpace=wrap;rounded=0;fontSize=20;" parent="1" vertex="1">
                    <mxGeometry x="465" y="587" width="60" height="30" as="geometry"/>
                </mxCell>
                <mxCell id="29" value="ml.exe" style="text;html=1;strokeColor=none;fillColor=none;align=center;verticalAlign=middle;whiteSpace=wrap;rounded=0;fontSize=20;" parent="1" vertex="1">
                    <mxGeometry x="645" y="587" width="60" height="30" as="geometry"/>
                </mxCell>
                <mxCell id="30" value="ml.exe" style="text;html=1;strokeColor=none;fillColor=none;align=center;verticalAlign=middle;whiteSpace=wrap;rounded=0;fontSize=20;" parent="1" vertex="1">
                    <mxGeometry x="815" y="587" width="60" height="30" as="geometry"/>
                </mxCell>
                <mxCell id="36" value="" style="edgeStyle=none;html=1;fontSize=20;" parent="1" source="37" target="38" edge="1">
                    <mxGeometry relative="1" as="geometry"/>
                </mxCell>
                <mxCell id="37" value="&lt;font&gt;&lt;span style=&quot;font-size: 20px&quot;&gt;main.asm&lt;/span&gt;&lt;br&gt;&lt;/font&gt;" style="rounded=0;whiteSpace=wrap;html=1;" parent="1" vertex="1">
                    <mxGeometry x="490" y="787" width="120" height="60" as="geometry"/>
                </mxCell>
                <mxCell id="38" value="&lt;font&gt;&lt;span style=&quot;font-size: 20px&quot;&gt;main.obj&lt;/span&gt;&lt;br&gt;&lt;/font&gt;" style="rounded=0;whiteSpace=wrap;html=1;" parent="1" vertex="1">
                    <mxGeometry x="490" y="927" width="120" height="60" as="geometry"/>
                </mxCell>
                <mxCell id="39" value="ml.exe" style="text;html=1;strokeColor=none;fillColor=none;align=center;verticalAlign=middle;whiteSpace=wrap;rounded=0;fontSize=20;" parent="1" vertex="1">
                    <mxGeometry x="560" y="867" width="60" height="30" as="geometry"/>
                </mxCell>
                <mxCell id="42" value="&lt;font&gt;&lt;font style=&quot;font-size: 20px&quot;&gt;ldf.obj&lt;/font&gt;&lt;br&gt;&lt;/font&gt;" style="rounded=0;whiteSpace=wrap;html=1;" parent="1" vertex="1">
                    <mxGeometry x="225" y="1067" width="120" height="60" as="geometry"/>
                </mxCell>
                <mxCell id="43" value="&lt;font&gt;&lt;span style=&quot;font-size: 20px&quot;&gt;sst.obj&lt;/span&gt;&lt;br&gt;&lt;/font&gt;" style="rounded=0;whiteSpace=wrap;html=1;" parent="1" vertex="1">
                    <mxGeometry x="575" y="1067" width="120" height="60" as="geometry"/>
                </mxCell>
                <mxCell id="44" value="&lt;font&gt;&lt;span style=&quot;font-size: 20px&quot;&gt;lja.obj&lt;/span&gt;&lt;br&gt;&lt;/font&gt;" style="rounded=0;whiteSpace=wrap;html=1;" parent="1" vertex="1">
                    <mxGeometry x="395" y="1067" width="120" height="60" as="geometry"/>
                </mxCell>
                <mxCell id="45" value="&lt;font&gt;&lt;span style=&quot;font-size: 20px&quot;&gt;zzl.obj&lt;/span&gt;&lt;br&gt;&lt;/font&gt;" style="rounded=0;whiteSpace=wrap;html=1;" parent="1" vertex="1">
                    <mxGeometry x="745" y="1067" width="120" height="60" as="geometry"/>
                </mxCell>
                <mxCell id="46" value="" style="edgeStyle=none;html=1;fontSize=20;" parent="1" source="47" target="48" edge="1">
                    <mxGeometry relative="1" as="geometry"/>
                </mxCell>
                <mxCell id="47" value="&lt;font&gt;&lt;span style=&quot;font-size: 20px&quot;&gt;data.asm&lt;/span&gt;&lt;br&gt;&lt;/font&gt;" style="rounded=0;whiteSpace=wrap;html=1;" parent="1" vertex="1">
                    <mxGeometry x="-370" y="846.5" width="120" height="60" as="geometry"/>
                </mxCell>
                <mxCell id="48" value="&lt;font&gt;&lt;span style=&quot;font-size: 20px&quot;&gt;data.obj&lt;/span&gt;&lt;br&gt;&lt;/font&gt;" style="rounded=0;whiteSpace=wrap;html=1;" parent="1" vertex="1">
                    <mxGeometry x="-370" y="986.5" width="120" height="60" as="geometry"/>
                </mxCell>
                <mxCell id="49" value="ml.exe" style="text;html=1;strokeColor=none;fillColor=none;align=center;verticalAlign=middle;whiteSpace=wrap;rounded=0;fontSize=20;" parent="1" vertex="1">
                    <mxGeometry x="-300" y="926.5" width="60" height="30" as="geometry"/>
                </mxCell>
                <mxCell id="132" value="" style="edgeStyle=none;html=1;fontSize=20;" parent="1" source="50" target="131" edge="1">
                    <mxGeometry relative="1" as="geometry"/>
                </mxCell>
                <mxCell id="50" value="&lt;font&gt;&lt;span style=&quot;font-size: 20px&quot;&gt;data.obj&lt;/span&gt;&lt;br&gt;&lt;/font&gt;" style="rounded=0;whiteSpace=wrap;html=1;" parent="1" vertex="1">
                    <mxGeometry x="490" y="1214" width="120" height="60" as="geometry"/>
                </mxCell>
                <mxCell id="51" value="" style="endArrow=classic;html=1;fontSize=20;exitX=0.5;exitY=1;exitDx=0;exitDy=0;entryX=0.5;entryY=0;entryDx=0;entryDy=0;" parent="1" source="38" target="45" edge="1">
                    <mxGeometry width="50" height="50" relative="1" as="geometry">
                        <mxPoint x="465" y="1067" as="sourcePoint"/>
                        <mxPoint x="515" y="1017" as="targetPoint"/>
                    </mxGeometry>
                </mxCell>
                <mxCell id="52" value="" style="endArrow=classic;html=1;fontSize=20;exitX=0.5;exitY=1;exitDx=0;exitDy=0;entryX=0.5;entryY=0;entryDx=0;entryDy=0;" parent="1" source="38" target="43" edge="1">
                    <mxGeometry width="50" height="50" relative="1" as="geometry">
                        <mxPoint x="560" y="997" as="sourcePoint"/>
                        <mxPoint x="815" y="1077" as="targetPoint"/>
                    </mxGeometry>
                </mxCell>
                <mxCell id="53" value="" style="endArrow=classic;html=1;fontSize=20;exitX=0.5;exitY=1;exitDx=0;exitDy=0;entryX=0.5;entryY=0;entryDx=0;entryDy=0;" parent="1" source="38" target="44" edge="1">
                    <mxGeometry width="50" height="50" relative="1" as="geometry">
                        <mxPoint x="560" y="997" as="sourcePoint"/>
                        <mxPoint x="645" y="1077" as="targetPoint"/>
                    </mxGeometry>
                </mxCell>
                <mxCell id="54" value="" style="endArrow=classic;html=1;fontSize=20;entryX=0.5;entryY=0;entryDx=0;entryDy=0;" parent="1" target="42" edge="1">
                    <mxGeometry width="50" height="50" relative="1" as="geometry">
                        <mxPoint x="555" y="987" as="sourcePoint"/>
                        <mxPoint x="465" y="1077" as="targetPoint"/>
                    </mxGeometry>
                </mxCell>
                <mxCell id="55" value="" style="endArrow=classic;html=1;fontSize=20;exitX=0.5;exitY=1;exitDx=0;exitDy=0;entryX=0.5;entryY=0;entryDx=0;entryDy=0;" parent="1" source="42" target="50" edge="1">
                    <mxGeometry width="50" height="50" relative="1" as="geometry">
                        <mxPoint x="475" y="1177" as="sourcePoint"/>
                        <mxPoint x="525" y="1127" as="targetPoint"/>
                    </mxGeometry>
                </mxCell>
                <mxCell id="56" value="" style="endArrow=classic;html=1;fontSize=20;exitX=0.5;exitY=1;exitDx=0;exitDy=0;entryX=0.5;entryY=0;entryDx=0;entryDy=0;" parent="1" source="44" target="50" edge="1">
                    <mxGeometry width="50" height="50" relative="1" as="geometry">
                        <mxPoint x="295" y="1137" as="sourcePoint"/>
                        <mxPoint x="555" y="1207" as="targetPoint"/>
                    </mxGeometry>
                </mxCell>
                <mxCell id="57" value="" style="endArrow=classic;html=1;fontSize=20;exitX=0.5;exitY=1;exitDx=0;exitDy=0;entryX=0.5;entryY=0;entryDx=0;entryDy=0;" parent="1" source="43" target="50" edge="1">
                    <mxGeometry width="50" height="50" relative="1" as="geometry">
                        <mxPoint x="465" y="1137" as="sourcePoint"/>
                        <mxPoint x="560" y="1224" as="targetPoint"/>
                    </mxGeometry>
                </mxCell>
                <mxCell id="62" value="main.exe" style="rounded=0;whiteSpace=wrap;html=1;fontSize=20;" parent="1" vertex="1">
                    <mxGeometry x="490" y="1594" width="120" height="60" as="geometry"/>
                </mxCell>
                <mxCell id="76" value="" style="edgeStyle=none;html=1;fontSize=20;" parent="1" source="77" target="84" edge="1">
                    <mxGeometry relative="1" as="geometry"/>
                </mxCell>
                <mxCell id="77" value="&lt;font&gt;&lt;font style=&quot;font-size: 20px&quot;&gt;ldf_dev.asm&lt;/font&gt;&lt;br&gt;&lt;/font&gt;" style="rounded=0;whiteSpace=wrap;html=1;" parent="1" vertex="1">
                    <mxGeometry x="-1315" y="733" width="120" height="60" as="geometry"/>
                </mxCell>
                <mxCell id="78" value="" style="edgeStyle=none;html=1;fontSize=20;" parent="1" source="79" target="85" edge="1">
                    <mxGeometry relative="1" as="geometry"/>
                </mxCell>
                <mxCell id="79" value="&lt;font&gt;&lt;span style=&quot;font-size: 20px&quot;&gt;sst_dev.asm&lt;/span&gt;&lt;br&gt;&lt;/font&gt;" style="rounded=0;whiteSpace=wrap;html=1;" parent="1" vertex="1">
                    <mxGeometry x="-965" y="733" width="120" height="60" as="geometry"/>
                </mxCell>
                <mxCell id="80" value="" style="edgeStyle=none;html=1;fontSize=20;" parent="1" source="81" target="86" edge="1">
                    <mxGeometry relative="1" as="geometry"/>
                </mxCell>
                <mxCell id="81" value="&lt;font&gt;&lt;span style=&quot;font-size: 20px&quot;&gt;lja_dev.asm&lt;/span&gt;&lt;br&gt;&lt;/font&gt;" style="rounded=0;whiteSpace=wrap;html=1;" parent="1" vertex="1">
                    <mxGeometry x="-1145" y="733" width="120" height="60" as="geometry"/>
                </mxCell>
                <mxCell id="82" value="" style="edgeStyle=none;html=1;fontSize=20;" parent="1" source="83" target="87" edge="1">
                    <mxGeometry relative="1" as="geometry"/>
                </mxCell>
                <mxCell id="83" value="&lt;font&gt;&lt;span style=&quot;font-size: 20px&quot;&gt;zzl_dev.asm&lt;/span&gt;&lt;br&gt;&lt;/font&gt;" style="rounded=0;whiteSpace=wrap;html=1;" parent="1" vertex="1">
                    <mxGeometry x="-795" y="733" width="120" height="60" as="geometry"/>
                </mxCell>
                <mxCell id="108" value="" style="edgeStyle=none;html=1;fontSize=20;" parent="1" source="84" target="96" edge="1">
                    <mxGeometry relative="1" as="geometry"/>
                </mxCell>
                <mxCell id="84" value="&lt;font&gt;&lt;font style=&quot;font-size: 20px&quot;&gt;ldf_dev.obj&lt;/font&gt;&lt;br&gt;&lt;/font&gt;" style="rounded=0;whiteSpace=wrap;html=1;" parent="1" vertex="1">
                    <mxGeometry x="-1315" y="873" width="120" height="60" as="geometry"/>
                </mxCell>
                <mxCell id="110" value="" style="edgeStyle=none;html=1;fontSize=20;" parent="1" source="85" target="99" edge="1">
                    <mxGeometry relative="1" as="geometry"/>
                </mxCell>
                <mxCell id="85" value="&lt;font&gt;&lt;span style=&quot;font-size: 20px&quot;&gt;sst_dev.obj&lt;/span&gt;&lt;br&gt;&lt;/font&gt;" style="rounded=0;whiteSpace=wrap;html=1;" parent="1" vertex="1">
                    <mxGeometry x="-965" y="873" width="120" height="60" as="geometry"/>
                </mxCell>
                <mxCell id="109" value="" style="edgeStyle=none;html=1;fontSize=20;" parent="1" source="86" target="97" edge="1">
                    <mxGeometry relative="1" as="geometry"/>
                </mxCell>
                <mxCell id="86" value="&lt;font&gt;&lt;span style=&quot;font-size: 20px&quot;&gt;lja_dev.obj&lt;/span&gt;&lt;br&gt;&lt;/font&gt;" style="rounded=0;whiteSpace=wrap;html=1;" parent="1" vertex="1">
                    <mxGeometry x="-1145" y="873" width="120" height="60" as="geometry"/>
                </mxCell>
                <mxCell id="111" value="" style="edgeStyle=none;html=1;fontSize=20;" parent="1" source="87" target="98" edge="1">
                    <mxGeometry relative="1" as="geometry"/>
                </mxCell>
                <mxCell id="87" value="&lt;font&gt;&lt;span style=&quot;font-size: 20px&quot;&gt;zzl_dev.obj&lt;/span&gt;&lt;br&gt;&lt;/font&gt;" style="rounded=0;whiteSpace=wrap;html=1;" parent="1" vertex="1">
                    <mxGeometry x="-795" y="873" width="120" height="60" as="geometry"/>
                </mxCell>
                <mxCell id="88" value="ml.exe" style="text;html=1;strokeColor=none;fillColor=none;align=center;verticalAlign=middle;whiteSpace=wrap;rounded=0;fontSize=20;" parent="1" vertex="1">
                    <mxGeometry x="-1245" y="813" width="60" height="30" as="geometry"/>
                </mxCell>
                <mxCell id="89" value="ml.exe" style="text;html=1;strokeColor=none;fillColor=none;align=center;verticalAlign=middle;whiteSpace=wrap;rounded=0;fontSize=20;" parent="1" vertex="1">
                    <mxGeometry x="-1075" y="813" width="60" height="30" as="geometry"/>
                </mxCell>
                <mxCell id="90" value="ml.exe" style="text;html=1;strokeColor=none;fillColor=none;align=center;verticalAlign=middle;whiteSpace=wrap;rounded=0;fontSize=20;" parent="1" vertex="1">
                    <mxGeometry x="-895" y="813" width="60" height="30" as="geometry"/>
                </mxCell>
                <mxCell id="91" value="ml.exe" style="text;html=1;strokeColor=none;fillColor=none;align=center;verticalAlign=middle;whiteSpace=wrap;rounded=0;fontSize=20;" parent="1" vertex="1">
                    <mxGeometry x="-725" y="813" width="60" height="30" as="geometry"/>
                </mxCell>
                <mxCell id="92" value="&lt;font&gt;&lt;font style=&quot;font-size: 20px&quot;&gt;ldf_dev.exe&lt;/font&gt;&lt;br&gt;&lt;/font&gt;" style="rounded=0;whiteSpace=wrap;html=1;" parent="1" vertex="1">
                    <mxGeometry x="-1315" y="1350.48" width="120" height="60" as="geometry"/>
                </mxCell>
                <mxCell id="93" value="&lt;font&gt;&lt;span style=&quot;font-size: 20px&quot;&gt;sst_dev.exe&lt;/span&gt;&lt;br&gt;&lt;/font&gt;" style="rounded=0;whiteSpace=wrap;html=1;" parent="1" vertex="1">
                    <mxGeometry x="-965" y="1350.48" width="120" height="60" as="geometry"/>
                </mxCell>
                <mxCell id="94" value="&lt;font&gt;&lt;span style=&quot;font-size: 20px&quot;&gt;lja_dev.exe&lt;/span&gt;&lt;br&gt;&lt;/font&gt;" style="rounded=0;whiteSpace=wrap;html=1;" parent="1" vertex="1">
                    <mxGeometry x="-1145" y="1350.48" width="120" height="60" as="geometry"/>
                </mxCell>
                <mxCell id="95" value="&lt;font&gt;&lt;span style=&quot;font-size: 20px&quot;&gt;zzl_dev.exe&lt;/span&gt;&lt;br&gt;&lt;/font&gt;" style="rounded=0;whiteSpace=wrap;html=1;" parent="1" vertex="1">
                    <mxGeometry x="-795" y="1350.48" width="120" height="60" as="geometry"/>
                </mxCell>
                <mxCell id="137" value="" style="edgeStyle=none;html=1;fontSize=20;" parent="1" source="96" target="133" edge="1">
                    <mxGeometry relative="1" as="geometry"/>
                </mxCell>
                <mxCell id="96" value="&lt;font&gt;&lt;span style=&quot;font-size: 20px&quot;&gt;data.obj&lt;/span&gt;&lt;br&gt;&lt;/font&gt;" style="rounded=0;whiteSpace=wrap;html=1;" parent="1" vertex="1">
                    <mxGeometry x="-1315" y="1006" width="120" height="60" as="geometry"/>
                </mxCell>
                <mxCell id="138" value="" style="edgeStyle=none;html=1;fontSize=20;" parent="1" source="97" target="134" edge="1">
                    <mxGeometry relative="1" as="geometry"/>
                </mxCell>
                <mxCell id="97" value="&lt;font&gt;&lt;span style=&quot;font-size: 20px&quot;&gt;data.obj&lt;/span&gt;&lt;br&gt;&lt;/font&gt;" style="rounded=0;whiteSpace=wrap;html=1;" parent="1" vertex="1">
                    <mxGeometry x="-1145" y="1006" width="120" height="60" as="geometry"/>
                </mxCell>
                <mxCell id="140" value="" style="edgeStyle=none;html=1;fontSize=20;" parent="1" source="98" target="135" edge="1">
                    <mxGeometry relative="1" as="geometry"/>
                </mxCell>
                <mxCell id="98" value="&lt;font&gt;&lt;span style=&quot;font-size: 20px&quot;&gt;data.obj&lt;/span&gt;&lt;br&gt;&lt;/font&gt;" style="rounded=0;whiteSpace=wrap;html=1;" parent="1" vertex="1">
                    <mxGeometry x="-795" y="1006" width="120" height="60" as="geometry"/>
                </mxCell>
                <mxCell id="139" value="" style="edgeStyle=none;html=1;fontSize=20;" parent="1" source="99" target="136" edge="1">
                    <mxGeometry relative="1" as="geometry"/>
                </mxCell>
                <mxCell id="99" value="&lt;font&gt;&lt;span style=&quot;font-size: 20px&quot;&gt;data.obj&lt;/span&gt;&lt;br&gt;&lt;/font&gt;" style="rounded=0;whiteSpace=wrap;html=1;" parent="1" vertex="1">
                    <mxGeometry x="-965" y="1006" width="120" height="60" as="geometry"/>
                </mxCell>
                <mxCell id="63" value="" style="shape=flexArrow;endArrow=classic;html=1;fontSize=20;endWidth=87.14285714285715;endSize=15.8;width=39;" parent="1" target="62" edge="1">
                    <mxGeometry width="50" height="50" relative="1" as="geometry">
                        <mxPoint x="550" y="1434" as="sourcePoint"/>
                        <mxPoint x="505" y="1524" as="targetPoint"/>
                    </mxGeometry>
                </mxCell>
                <mxCell id="113" value="" style="shape=flexArrow;endArrow=classic;html=1;fontSize=20;entryX=0.5;entryY=0;entryDx=0;entryDy=0;exitX=0.84;exitY=0.999;exitDx=0;exitDy=0;exitPerimeter=0;endWidth=42.758620689655174;endSize=8.510344827586207;width=24.82758620689655;" parent="1" target="95" edge="1">
                    <mxGeometry width="50" height="50" relative="1" as="geometry">
                        <mxPoint x="-736.5999999999999" y="1250" as="sourcePoint"/>
                        <mxPoint x="-915" y="1130.48" as="targetPoint"/>
                    </mxGeometry>
                </mxCell>
                <mxCell id="114" value="" style="shape=flexArrow;endArrow=classic;html=1;fontSize=20;entryX=0.5;entryY=0;entryDx=0;entryDy=0;exitX=0.84;exitY=0.999;exitDx=0;exitDy=0;exitPerimeter=0;endWidth=42.758620689655174;endSize=8.510344827586207;width=24.82758620689655;" parent="1" edge="1">
                    <mxGeometry width="50" height="50" relative="1" as="geometry">
                        <mxPoint x="-1255.8" y="1250.48" as="sourcePoint"/>
                        <mxPoint x="-1254.2" y="1350.96" as="targetPoint"/>
                    </mxGeometry>
                </mxCell>
                <mxCell id="115" value="" style="shape=flexArrow;endArrow=classic;html=1;fontSize=20;entryX=0.5;entryY=0;entryDx=0;entryDy=0;exitX=0.84;exitY=0.999;exitDx=0;exitDy=0;exitPerimeter=0;endWidth=42.758620689655174;endSize=8.510344827586207;width=24.82758620689655;" parent="1" edge="1">
                    <mxGeometry width="50" height="50" relative="1" as="geometry">
                        <mxPoint x="-1090.8" y="1250" as="sourcePoint"/>
                        <mxPoint x="-1089.2" y="1350.48" as="targetPoint"/>
                    </mxGeometry>
                </mxCell>
                <mxCell id="116" value="" style="shape=flexArrow;endArrow=classic;html=1;fontSize=20;entryX=0.5;entryY=0;entryDx=0;entryDy=0;exitX=0.84;exitY=0.999;exitDx=0;exitDy=0;exitPerimeter=0;endWidth=42.758620689655174;endSize=8.510344827586207;width=24.82758620689655;" parent="1" edge="1">
                    <mxGeometry width="50" height="50" relative="1" as="geometry">
                        <mxPoint x="-910.8" y="1250.48" as="sourcePoint"/>
                        <mxPoint x="-909.2" y="1350.96" as="targetPoint"/>
                    </mxGeometry>
                </mxCell>
                <mxCell id="120" value="" style="shape=flexArrow;endArrow=classic;html=1;fontSize=20;exitX=0;exitY=0.5;exitDx=0;exitDy=0;entryX=1;entryY=0.5;entryDx=0;entryDy=0;endWidth=46.66666666666667;endSize=20.058333333333334;width=38.333333333333336;" parent="1" source="117" target="112" edge="1">
                    <mxGeometry width="50" height="50" relative="1" as="geometry">
                        <mxPoint x="-930" y="900" as="sourcePoint"/>
                        <mxPoint x="-880" y="850" as="targetPoint"/>
                    </mxGeometry>
                </mxCell>
                <mxCell id="121" value="" style="shape=flexArrow;endArrow=classic;html=1;fontSize=20;exitX=1;exitY=0.5;exitDx=0;exitDy=0;endWidth=46.66666666666667;endSize=20.058333333333334;width=38.333333333333336;" parent="1" source="117" target="61" edge="1">
                    <mxGeometry width="50" height="50" relative="1" as="geometry">
                        <mxPoint x="-335" y="1010" as="sourcePoint"/>
                        <mxPoint x="170" y="893" as="targetPoint"/>
                    </mxGeometry>
                </mxCell>
                <mxCell id="122" value="" style="edgeStyle=none;html=1;fontSize=20;" parent="1" source="123" target="124" edge="1">
                    <mxGeometry relative="1" as="geometry"/>
                </mxCell>
                <mxCell id="123" value="&lt;font&gt;&lt;span style=&quot;font-size: 20px&quot;&gt;main.rc&lt;/span&gt;&lt;br&gt;&lt;/font&gt;" style="rounded=0;whiteSpace=wrap;html=1;" parent="1" vertex="1">
                    <mxGeometry x="-180" y="846.5" width="120" height="60" as="geometry"/>
                </mxCell>
                <mxCell id="124" value="&lt;font&gt;&lt;span style=&quot;font-size: 20px&quot;&gt;main.res&lt;/span&gt;&lt;br&gt;&lt;/font&gt;" style="rounded=0;whiteSpace=wrap;html=1;" parent="1" vertex="1">
                    <mxGeometry x="-180" y="986.5" width="120" height="60" as="geometry"/>
                </mxCell>
                <mxCell id="125" value="rc.exe" style="text;html=1;strokeColor=none;fillColor=none;align=center;verticalAlign=middle;whiteSpace=wrap;rounded=0;fontSize=20;" parent="1" vertex="1">
                    <mxGeometry x="-110" y="926.5" width="60" height="30" as="geometry"/>
                </mxCell>
                <mxCell id="126" value="Link.exe" style="text;html=1;strokeColor=none;fillColor=none;align=center;verticalAlign=middle;whiteSpace=wrap;rounded=0;fontSize=20;" parent="1" vertex="1">
                    <mxGeometry x="590" y="1481" width="60" height="30" as="geometry"/>
                </mxCell>
                <mxCell id="127" value="Link.exe" style="text;html=1;strokeColor=none;fillColor=none;align=center;verticalAlign=middle;whiteSpace=wrap;rounded=0;fontSize=20;" parent="1" vertex="1">
                    <mxGeometry x="-705" y="1277.48" width="60" height="30" as="geometry"/>
                </mxCell>
                <mxCell id="128" value="Link.exe" style="text;html=1;strokeColor=none;fillColor=none;align=center;verticalAlign=middle;whiteSpace=wrap;rounded=0;fontSize=20;" parent="1" vertex="1">
                    <mxGeometry x="-885" y="1277.48" width="60" height="30" as="geometry"/>
                </mxCell>
                <mxCell id="129" value="Link.exe" style="text;html=1;strokeColor=none;fillColor=none;align=center;verticalAlign=middle;whiteSpace=wrap;rounded=0;fontSize=20;" parent="1" vertex="1">
                    <mxGeometry x="-1065" y="1277.48" width="60" height="30" as="geometry"/>
                </mxCell>
                <mxCell id="130" value="Link.exe" style="text;html=1;strokeColor=none;fillColor=none;align=center;verticalAlign=middle;whiteSpace=wrap;rounded=0;fontSize=20;" parent="1" vertex="1">
                    <mxGeometry x="-1234" y="1277.48" width="60" height="30" as="geometry"/>
                </mxCell>
                <mxCell id="131" value="&lt;font&gt;&lt;span style=&quot;font-size: 20px&quot;&gt;main.res&lt;/span&gt;&lt;br&gt;&lt;/font&gt;" style="rounded=0;whiteSpace=wrap;html=1;" parent="1" vertex="1">
                    <mxGeometry x="490" y="1351" width="120" height="60" as="geometry"/>
                </mxCell>
                <mxCell id="133" value="&lt;font&gt;&lt;span style=&quot;font-size: 20px&quot;&gt;main.res&lt;/span&gt;&lt;br&gt;&lt;/font&gt;" style="rounded=0;whiteSpace=wrap;html=1;" parent="1" vertex="1">
                    <mxGeometry x="-1315" y="1133" width="120" height="60" as="geometry"/>
                </mxCell>
                <mxCell id="134" value="&lt;font&gt;&lt;span style=&quot;font-size: 20px&quot;&gt;main.res&lt;/span&gt;&lt;br&gt;&lt;/font&gt;" style="rounded=0;whiteSpace=wrap;html=1;" parent="1" vertex="1">
                    <mxGeometry x="-1145" y="1133" width="120" height="60" as="geometry"/>
                </mxCell>
                <mxCell id="135" value="&lt;font&gt;&lt;span style=&quot;font-size: 20px&quot;&gt;main.res&lt;/span&gt;&lt;br&gt;&lt;/font&gt;" style="rounded=0;whiteSpace=wrap;html=1;" parent="1" vertex="1">
                    <mxGeometry x="-795" y="1133" width="120" height="60" as="geometry"/>
                </mxCell>
                <mxCell id="136" value="&lt;font&gt;&lt;span style=&quot;font-size: 20px&quot;&gt;main.res&lt;/span&gt;&lt;br&gt;&lt;/font&gt;" style="rounded=0;whiteSpace=wrap;html=1;" parent="1" vertex="1">
                    <mxGeometry x="-965" y="1133" width="120" height="60" as="geometry"/>
                </mxCell>
                <mxCell id="144" value="" style="shape=flexArrow;endArrow=classic;html=1;rounded=1;fontSize=20;strokeColor=default;exitX=0.5;exitY=0;exitDx=0;exitDy=0;entryX=0.5;entryY=0;entryDx=0;entryDy=0;endWidth=157.5;endSize=28.941666666666666;width=83.33333333333334;" parent="1" source="112" target="61" edge="1">
                    <mxGeometry width="50" height="50" relative="1" as="geometry">
                        <mxPoint x="-675" y="587" as="sourcePoint"/>
                        <mxPoint x="-20" y="390" as="targetPoint"/>
                        <Array as="points">
                            <mxPoint x="-990" y="160"/>
                            <mxPoint x="550" y="160"/>
                        </Array>
                    </mxGeometry>
                </mxCell>
                <mxCell id="145" value="Link main.obj zzl.obj ldf.obj lja.obj sst.obj data.obj main.res" style="text;strokeColor=none;fillColor=none;html=1;fontSize=24;fontStyle=1;verticalAlign=middle;align=center;" parent="1" vertex="1">
                    <mxGeometry x="125" y="1476" width="100" height="40" as="geometry"/>
                </mxCell>
                <mxCell id="146" value="Link name_dev.obj data.obj main.res" style="text;strokeColor=none;fillColor=none;html=1;fontSize=24;fontStyle=1;verticalAlign=middle;align=center;" parent="1" vertex="1">
                    <mxGeometry x="-1050" y="1460" width="100" height="40" as="geometry"/>
                </mxCell>
                <mxCell id="148" value="" style="endArrow=classic;html=1;exitX=0.5;exitY=1;exitDx=0;exitDy=0;entryX=0.5;entryY=0;entryDx=0;entryDy=0;" edge="1" parent="1" source="45" target="50">
                    <mxGeometry width="50" height="50" relative="1" as="geometry">
                        <mxPoint x="690" y="1280" as="sourcePoint"/>
                        <mxPoint x="740" y="1230" as="targetPoint"/>
                    </mxGeometry>
                </mxCell>
            </root>
        </mxGraphModel>
    </diagram>
</mxfile>